<?xml version="1.0" standalone="no"?>
<!DOCTYPE svg PUBLIC "-//W3C//DTD SVG 20010904//EN"
 "http://www.w3.org/TR/2001/REC-SVG-20010904/DTD/svg10.dtd">
<svg version="1.0" xmlns="http://www.w3.org/2000/svg"
 width="512.000000pt" height="512.000000pt" viewBox="0 0 512.000000 512.000000"
 preserveAspectRatio="xMidYMid meet">

<g transform="translate(0.000000,512.000000) scale(0.100000,-0.100000)"
fill="#000000" stroke="none">
<path d="M880 5105 c-456 -80 -801 -434 -869 -892 -15 -100 -15 -3206 0 -3306
70 -467 429 -826 896 -896 100 -15 3206 -15 3306 0 467 70 826 429 896 896 15
100 15 3206 0 3306 -70 467 -429 826 -896 896 -114 17 -3235 13 -3333 -4z
m3375 -306 c28 -9 75 -27 105 -39 214 -91 382 -290 441 -520 21 -82 21 -3278
0 -3360 -70 -274 -287 -491 -561 -561 -82 -21 -3278 -21 -3360 0 -232 59 -429
227 -522 446 -56 133 -53 38 -53 1795 0 1757 -3 1662 53 1795 93 220 305 400
522 444 30 6 64 13 75 15 11 2 747 3 1635 2 1440 -1 1620 -3 1665 -17z"/>
<path d="M2240 4061 c-74 -24 -139 -82 -166 -147 -17 -41 -18 -143 -2 -181 7
-15 54 -101 106 -191 l93 -163 -336 -584 -337 -584 -282 -3 c-267 -3 -283 -4
-322 -25 -48 -25 -101 -83 -120 -129 -18 -43 -18 -145 0 -188 19 -46 72 -104
120 -129 l41 -22 983 -3 c541 -1 982 1 980 6 -1 4 -66 117 -143 250 l-140 242
-267 0 c-148 0 -268 2 -268 5 0 3 197 346 437 763 l438 757 3 67 c2 36 -1 82
-7 101 -16 47 -75 113 -125 140 -57 30 -164 30 -222 0 -44 -24 -94 -75 -119
-123 -9 -17 -20 -30 -25 -30 -5 0 -16 13 -25 30 -25 48 -75 100 -118 122 -44
22 -137 32 -177 19z"/>
<path d="M2947 3149 c-31 -49 -247 -428 -258 -451 -10 -22 29 -94 430 -789
318 -551 451 -773 478 -797 137 -121 364 -47 404 133 18 83 3 133 -99 310
l-89 153 136 4 c116 3 142 7 177 25 48 25 101 82 120 129 18 43 18 145 0 188
-19 46 -72 104 -120 129 -39 21 -57 22 -323 27 l-283 5 -271 470 c-149 259
-275 474 -279 479 -4 4 -15 -2 -23 -15z"/>
<path d="M1161 1455 c-45 -80 -57 -141 -42 -210 31 -140 173 -222 313 -181 79
23 120 68 223 246 48 85 95 165 103 178 l14 22 -290 0 -290 0 -31 -55z"/>
</g>
</svg>
