<?xml version="1.0" standalone="no"?>
<!DOCTYPE svg PUBLIC "-//W3C//DTD SVG 20010904//EN"
 "http://www.w3.org/TR/2001/REC-SVG-20010904/DTD/svg10.dtd">
<svg version="1.0" xmlns="http://www.w3.org/2000/svg"
 width="512.000000pt" height="512.000000pt" viewBox="0 0 512.000000 512.000000"
 preserveAspectRatio="xMidYMid meet">

<g transform="translate(0.000000,512.000000) scale(0.100000,-0.100000)"
fill="#000000" stroke="none">
<path d="M632 5112 c-20 -6 108 -137 1133 -1162 l1155 -1155 372 372 c237 237
369 376 363 382 -26 24 -2727 1528 -2775 1544 -58 20 -208 32 -248 19z"/>
<path d="M280 4850 c-64 -127 -60 33 -60 -2290 0 -2323 -4 -2163 60 -2290 17
-33 36 -60 43 -60 6 0 541 529 1187 1175 l1175 1175 -1175 1175 c-646 646
-1181 1175 -1187 1175 -7 0 -26 -27 -43 -60z"/>
<path d="M3560 2965 l-405 -405 405 -405 c223 -223 408 -405 413 -405 4 0 163
87 354 193 383 213 451 263 511 375 80 151 80 333 0 484 -60 112 -128 162
-511 376 -191 105 -350 192 -354 192 -5 0 -190 -182 -413 -405z"/>
<path d="M1761 1166 l-1154 -1154 57 -7 c70 -9 150 -1 219 23 46 16 2747 1520
2772 1543 6 6 -126 145 -360 379 -204 204 -372 370 -375 370 -3 0 -524 -519
-1159 -1154z"/>
</g>
</svg>
